PathFileType	4	(X/Y/Z)	Patient4_TMGait_0pt5_01_right_16.trc.trc
DataRate	CameraRate	NumFrames	NumMarkers	Units	OrigDataRate	OrigDataStartFrame	OrigNumFrames
75.675675675676	75.675675675676	4	33	mm	75.675675675676	71	       141
Frame#	Time	L.ASIS			Sacral			L.Shoulder			Chest			R.Shoulder			Neck			R.ASIS			R.Thigh.Superior			R.Thigh.Lateral			R.Thigh.Inferior			R.Patella			L.Thigh.Superior			L.Thigh.Lateral			L.Thigh.Inferior			L.Patella			L.Shank.Superior			L.Shank.Lateral			L.Shank.Inferior			R.Shank.Superior			R.Shank.Lateral			R.Shank.Inferior			R.Heel			R.Midfoot.Superior			R.Midfoot.Lateral			R.Toe			L.Heel			L.Midfoot.Lateral			L.Midfoot.Superior			L.Toe			L.Elbow			L.Wrist			R.Elbow			R.Wrist			
		X1	Y1	Z1	X2	Y2	Z2	X3	Y3	Z3	X4	Y4	Z4	X5	Y5	Z5	X6	Y6	Z6	X7	Y7	Z7	X8	Y8	Z8	X9	Y9	Z9	X10	Y10	Z10	X11	Y11	Z11	X12	Y12	Z12	X13	Y13	Z13	X14	Y14	Z14	X15	Y15	Z15	X16	Y16	Z16	X17	Y17	Z17	X18	Y18	Z18	X19	Y19	Z19	X20	Y20	Z20	X21	Y21	Z21	X22	Y22	Z22	X23	Y23	Z23	X24	Y24	Z24	X25	Y25	Z25	X26	Y26	Z26	X27	Y27	Z27	X28	Y28	Z28	X29	Y29	Z29	X30	Y30	Z30	X31	Y31	Z31	X32	Y32	Z32	X33	Y33	Z33	

71	21.675000000000	791.180658533255	955.602445597181	348.059519523219	602.515973847699	1003.104600470889	534.444712344763	745.110539779758	1430.950395945492	339.247414696277	875.250745692685	1354.932424001081	476.299285540897	827.150202771273	1427.691541434514	664.099127813575	775.790287721838	1488.364235663305	488.038615546084	838.256530736872	929.087241732111	618.439008875902	833.780008743215	718.050227653786	585.976722534960	734.591949545694	623.712089294897	652.398044877069	787.503946924701	559.707093534961	566.188653535179	767.416210988512	473.738198552790	568.410802635268	869.388531750560	771.613541201261	375.688249690708	814.021610127229	641.536962621404	306.551972552586	917.080157328716	581.966734193534	366.070360666027	943.036810166512	516.639083037327	364.473206940764	927.782109440774	444.210553682148	355.588142417264	862.306276507593	313.292288873477	307.795713509617	950.624674201791	216.218086696532	363.799716253366	727.230999620219	390.232836883765	576.273601499759	646.043672870596	297.005861675626	641.364507417297	665.128470106021	199.064847403835	573.510747437429	508.056311097872	44.888375216137	548.619939785503	681.200055349010	95.775461891583	577.660350018249	593.661096411100	36.488459109811	620.309957549630	801.831429133188	40.021659232809	603.244062149866	867.007124949054	39.629167794304	405.216929860130	940.528566257552	42.846937013695	324.681457218961	1012.497558620007	118.067437045326	344.528767655029	1145.120159525682	86.235550470260	318.872352797306	606.729690106591	1099.178193099385	254.007042897573	605.630641533821	837.247466496932	258.314044893298	977.552511228088	1122.510477449787	762.176195010911	1208.919956829908	1173.178887697763	674.116977660352	
72	21.688214285714	793.139128167682	953.944006608828	346.861319842005	604.063919928378	1001.874405633238	532.645216098920	745.181461732690	1429.778139523068	337.453730493387	875.590272034779	1354.256555903493	474.517567502532	827.144874799797	1426.730681677066	662.344099218379	775.644002701818	1487.323689670110	486.220961610247	839.847932691841	928.203462591299	617.291967474912	833.872306716367	716.744714199383	585.497505412869	733.355454752933	623.240057056001	651.710313512447	785.876360114454	558.524479192241	565.836130294559	764.780139087645	472.588783460006	567.964132048135	871.293753660801	769.568438931451	374.342852259214	814.121067844846	638.996758089905	306.822907147403	918.018639457805	579.939228251566	365.383906227946	943.037697932980	513.732795126130	364.650303311820	926.963968317621	440.859370157228	356.341065435283	859.116967621432	310.864036027300	309.357509431287	945.694460472630	212.534163668923	365.625903186602	723.810379426836	389.560163260846	575.940375072836	641.644543454062	297.305138590501	641.335302071036	659.769673779017	199.046046799447	573.560450592847	501.496636521337	45.596685081163	548.850514808091	674.809219893745	95.855593438958	577.852509364468	587.100339198936	36.710596715990	620.398002041521	795.241158152225	39.711119437336	603.278826403751	857.986824235453	38.889801788100	407.177436812207	931.471617265703	40.547610693854	326.438383290590	1005.914775662584	113.007595260168	346.981875114847	1137.605676543011	76.959658648735	320.798290602777	608.090897272480	1097.593883407125	251.731072471032	611.089444631426	835.500205566635	255.282502893653	979.376902344024	1122.095174650099	759.401012439572	1210.348887096141	1173.677808524499	670.729620114160	
73	21.701428571429	795.176124948612	952.401250361843	345.564665890395	605.646537414082	1000.750911315454	530.703380464007	745.465131148528	1428.636204814371	335.504664121502	876.078585207212	1353.617519943572	472.652296261182	827.223363572966	1425.847003540913	660.489992587972	775.656269076234	1486.351287244175	484.233263798197	841.495495189571	927.302957214942	616.029893920498	834.212978576889	715.496326950600	584.934139963657	732.445855243951	622.791926247526	650.898493415591	784.675412280789	557.385032474734	565.368774245455	762.584028829364	471.406229281905	567.428717534527	873.181967475178	767.568483785585	373.166870279117	814.607873635659	636.755212639622	306.914619629162	919.102832258146	578.113726306866	364.958470596405	943.154451925024	510.989544635130	365.019126118751	926.304798555814	437.728550454387	357.104820506150	856.292250481829	308.707575114954	310.605373699825	940.869956687684	209.096559427802	367.356952067928	720.756459109654	388.885983378172	575.545620925054	637.508407723322	297.722733692140	641.265182776776	654.607404750134	199.117889860334	573.630051754275	494.993253184635	46.587027323482	549.141204011959	668.523769058830	96.009410807961	578.098999897207	580.586094615857	37.068430541299	620.525374842009	788.666333516434	39.367656005002	603.311532991201	848.975092634788	38.251364266843	408.660677656244	922.597888226312	38.595056400853	327.896707421622	999.301684218923	108.385275152288	349.415093878455	1130.151053550178	68.388512632623	322.981327178267	609.965808964798	1095.901816906241	249.186357951939	617.214158979712	833.711791445749	251.806334599717	980.514127119979	1121.306683648429	756.814084781210	1211.428227557485	1172.894311653234	667.770068705189	
74	21.714642857143	797.207408434335	951.077665953463	344.137498332900	607.219082908644	999.797602459030	528.636481025221	745.976845640795	1427.595651053598	333.436303636495	876.730374941918	1353.044326530911	470.717395821681	827.450031934905	1425.082050986097	658.553473959425	775.876488966181	1485.501007222881	482.110139677110	843.150499913767	926.427519199812	614.621455194048	834.763243620058	714.359869390463	584.215129673157	731.887340804931	622.395569610943	649.933870950889	783.921946479150	556.330395061341	564.747186169278	760.868731337836	470.214080442261	566.789429245232	875.046290469307	765.795114320824	372.193895508867	815.583004083303	634.972669768082	306.784532140092	920.377912945388	576.635502935547	364.793350801838	943.463442717508	508.573010910299	365.520939828724	925.894643122580	434.983449116552	357.813957933154	853.997976705260	306.967188868928	311.454019135276	936.337148679745	206.096731255331	368.901048625397	718.096683762550	388.238801469032	575.081522347357	633.662180104238	298.293310838268	641.142051514620	649.666943044141	199.308682994527	573.719513374561	488.562535316171	47.916917034778	549.495369534308	662.370976947653	96.253162101929	578.406335865064	574.128739138601	37.588171566579	620.691470625845	782.115330273313	38.997608869270	603.344018667609	840.335984873558	37.770260397939	409.681476343539	914.207623509480	37.089966549952	329.021458746828	992.849365813208	104.461449534335	351.661860856538	1122.975558146798	60.990474119302	325.175973844290	612.359587947752	1094.182950960535	246.409280532254	623.959926653277	831.975633197124	247.910169409808	980.983939475727	1120.158648496386	754.411462980160	1212.198410293621	1170.787070978277	665.271665336170	
